<svg xmlns="http://www.w3.org/2000/svg" width="16" height="16" viewBox="0 0 16 16" role="img">
  <title>Paul Marciano CPA</title>
  <desc>Income Tax Services</desc>
  <g fill="none" fill-rule="evenodd">
    <path fill="#fff" d="M0 0h16v16H0z"/>
    <path fill="#6C0" d="M0 0h16v4H0z"/>
    <path fill="#222" fill-rule="nonzero" d="M3.59565431 13.1037598c.34033203 0 .63916016-.0442709.89648437-.1328125.25732422-.0885417.5049642-.229655.74291993-.4233399l-.54370118-.7470703c-.1743164.1411133-.34240722.2400309-.50427246.2967529-.16186523.056722-.32995605.085083-.50427246.085083-.52018229 0-.90063476-.2199707-1.14135742-.6599121-.09130859-.1660156-.15494792-.3693847-.19091797-.6101074-.03597005-.2407226-.05395508-.5644531-.05395508-.97119139 0-.68619792.11067709-1.19392904.33203125-1.52319336.10791016-.15771484.25179037-.28222656.43164063-.37353516.17985026-.09130859.36938476-.13696289.56860351-.13696289.32926433 0 .64469401.11067709.94628907.33203125l.53540039-.80517578c-.16601563-.14388021-.38391114-.25801595-.65368653-.34240722-.26977539-.08439128-.55131022-.12658692-.84460449-.12658692-.48144531 0-.92069499.12036133-1.31774902.36108399-.39705404.24072265-.71179199.57690429-.94421387 1.00854492-.265625.49804687-.3984375 1.10953776-.3984375 1.83447266 0 .8771159.23795573 1.5826823.71386719 2.1166992.47591146.5450846 1.119222.817627 1.92993164.817627zM7.2729004 13v-2.1748047h.65576172c.1632487 0 .30436198-.0041504.42333985-.0124512.11897786-.0083007.22273763-.0214436.31127929-.0394287.08854167-.017985.16809082-.0380452.23864746-.0601806.07055664-.0221355.14042155-.0498047.20959473-.0830078.32096354-.154948.57067871-.3825277.74914551-.6827393.17846684-.30021159.26770024-.64538575.26770024-1.03552247 0-.34033203-.0719402-.64261881-.21582036-.90686035-.14388021-.26424153-.35416667-.4724528-.63085937-.62463379-.08577474-.04427083-.17154948-.085083-.25732422-.12243652-.08577474-.03735352-.18953451-.06848145-.3112793-.09338379-.12174479-.02490234-.26908366-.04288737-.4420166-.05395508-.17293294-.01106771-.38391113-.01660156-.63293457-.01660156h-1.5522461V13H7.2729004zm.6225586-3.14599609h-.6225586V8.05273438h.75952149c.25455729 0 .45100911.07816569.58935547.23449707.13834635.15633138.20751953.37284342.20751953.64953613 0 .14111328-.01175944.25870768-.03527832.3527832-.02351888.09407552-.06018067.18123373-.10998535.26147461-.03873698.0608724-.07954916.11136882-.12243653.15148926-.04288737.04012044-.09407552.07124837-.15356445.09338379-.05948893.02213541-.13004557.03735351-.21166992.04565429-.08162435.00830079-.18192546.01245118-.30090332.01245118zM11.2157715 13l.4150391-1.402832h1.7348632L13.7807129 13h1.2783203l-1.8635254-5.92260742h-1.2824707L9.9748047 13h1.2409668zm1.859375-2.3864746h-1.1538086c.0608724-.1992188.1148275-.3783773.1618652-.5374756.0470378-.1590983.0982259-.34655761.1535645-.56237792.0221354-.09407553.0484212-.20129395.0788574-.32165528.0304362-.12036133.0587972-.2351888.085083-.34448242.0262858-.10929362.049113-.2068278.0684815-.29260254.0193685-.08577474.0345866-.14526367.0456543-.1784668l.2407226 1.04589844c.0221354.1023763.0498047.21582031.0830078.34033203.0332032.12451172.0657145.24487309.0975342.36108399.0318197.1162109.0601807.2185872.085083.3071289.0249024.0885417.0428874.1494141.0539551.1826172z"/>
  </g>
</svg>
